inDegrees=no
num_controls=7
num_derivatives=13
num_iterations=99
num_multipliers=7
num_parameters=0
num_slacks=7
num_states=26
objective=0.445721
objective_accelerations=0.056958
objective_balance=0.003435
objective_effort=0.022768
objective_height=0.357006
objective_ligament=0.005554
solver_duration=1349.326524
status=Solve_Succeeded
success=true
DataType=double
version=3
OpenSimVersion=4.5
endheader
time	/jointset/ground_pelvis/pelvis_tilt/value	/jointset/ground_pelvis/pelvis_tx/value	/jointset/ground_pelvis/pelvis_ty/value	/jointset/hip_l/hip_flexion_l/value	/jointset/hip_l/hip_adduction_l/value	/jointset/hip_l/hip_rotation_l/value	/jointset/back/lumbar_extension/value	/jointset/patellofemoral_l/patellar_flexion_l/value	/jointset/knee_l/knee_flexion_l/value	/jointset/knee_l/knee_adduction_l/value	/jointset/knee_l/knee_rotation_l/value	/jointset/ankle_l/ankle_angle_l/value	/jointset/subtalar_l/subtalar_angle_l/value	/jointset/ground_pelvis/pelvis_tilt/speed	/jointset/ground_pelvis/pelvis_tx/speed	/jointset/ground_pelvis/pelvis_ty/speed	/jointset/hip_l/hip_flexion_l/speed	/jointset/hip_l/hip_adduction_l/speed	/jointset/hip_l/hip_rotation_l/speed	/jointset/back/lumbar_extension/speed	/jointset/patellofemoral_l/patellar_flexion_l/speed	/jointset/knee_l/knee_flexion_l/speed	/jointset/knee_l/knee_adduction_l/speed	/jointset/knee_l/knee_rotation_l/speed	/jointset/ankle_l/ankle_angle_l/speed	/jointset/subtalar_l/subtalar_angle_l/speed	/forceset/tau_hip_flexion_l	/forceset/tau_hip_adduction_l	/forceset/tau_hip_rotation_l	/forceset/tau_knee_flexion_l	/forceset/tau_ankle_angle_l	/forceset/tau_subtalar_angle_l	/forceset/tau_lumbar_extension	lambda_cid13_p0	lambda_cid13_p1	lambda_cid13_p2	lambda_cid13_p3	lambda_cid13_p4	lambda_cid13_p5	lambda_cid14_p0	/jointset/ground_pelvis/pelvis_tilt/accel	/jointset/ground_pelvis/pelvis_tx/accel	/jointset/ground_pelvis/pelvis_ty/accel	/jointset/hip_l/hip_flexion_l/accel	/jointset/hip_l/hip_adduction_l/accel	/jointset/hip_l/hip_rotation_l/accel	/jointset/back/lumbar_extension/accel	/jointset/patellofemoral_l/patellar_flexion_l/accel	/jointset/knee_l/knee_flexion_l/accel	/jointset/knee_l/knee_adduction_l/accel	/jointset/knee_l/knee_rotation_l/accel	/jointset/ankle_l/ankle_angle_l/accel	/jointset/subtalar_l/subtalar_angle_l/accel	gamma_cid13_p0	gamma_cid13_p1	gamma_cid13_p2	gamma_cid13_p3	gamma_cid13_p4	gamma_cid13_p5	gamma_cid14_p0
0	-0.03975703347811576	0.06901624799246411	0.8959602126747775	0.1955287580552426	-0.3219090205659678	-0.4853433273161813	-0.1379045077516729	0.07015288079084783	0.07015288079084844	-0.1745324863890217	-0.1197120398687383	-0.06701059314715049	0.003946732823000947	0	0	0	0	0	0	0	0	0	0	0	0	0	0.1091292002975558	-0.09804639400306185	-0.03158372366521223	-0.2415567399014705	0.2066756899764706	-0.020787909699065	-0.05303492280370735	30.48988031363526	0.5362546433415007	3.180504492947605	-4.109321613830924	-515.5187773444541	-76.66792092014153	-39.96478625103141	-4.434511306654014	-1.761060069173323	-0.9679049292614526	12.42288137973059	-2.129439014835812	3.357488320927527	-2.810947091676919	10.23673353596105	10.23673353596099	0.6841680000854318	-0.8172943911479335	2.442269103375512	-1.007335527974274	-3.185064914522828e-08	1.19178982077365e-07	1.173631882068539e-07	1.820557564254687e-08	-3.315029599679394e-08	-4.272156274447143e-08	-5.739245208368177e-09
0.01	-0.03996845794492573	0.0689293394348635	0.8959132150450647	0.1961295593899605	-0.3220139231469656	-0.4851746741189844	-0.1380509788940157	0.0706504253020518	0.07065042530204511	-0.1745018118266224	-0.1197467772445484	-0.06689325167849999	0.003895447425440601	-0.04206846473780082	-0.01730868237422216	-0.009369996418106827	0.1196209500039834	-0.02088519803150318	0.03359336537317046	-0.02904821889632509	0.0990902173816306	0.09909021738163293	0.006108279438154844	-0.006912799782623479	0.02337053718124152	-0.01020682569157417	0.104278451924401	-0.09826236319480218	-0.03059513143111482	-0.2351278513490404	0.1969240244224553	-0.01614194044168392	-0.04898238366855337	27.50828685067973	-0.9521574420411517	3.409485399659933	-2.942805100812112	-516.2976270893422	-79.78289313915769	-39.97485251218436	-4.060560592071401	-1.704814308432174	-0.9171241994817249	11.65079274285591	-2.053793186161602	3.339656863344675	-2.914857852907493	9.682364258374164	9.682364258374568	0.5701968555512064	-0.6230604236994755	2.269783470343809	-1.019850204282559	-6.990677411630267e-08	1.508870658614079e-07	1.975521178995046e-07	5.067018715318918e-08	-2.436666038917747e-07	-9.144548439286983e-08	-1.19569044622085e-08
0.02	-0.04059407636605554	0.06867153565614363	0.8957734020108916	0.1979103884111454	-0.3223248243060498	-0.4846742080244896	-0.1384805519381799	0.07212631167088449	0.07212631167088442	-0.1744108466818537	-0.1198496001485788	-0.06654513734906783	0.003743594948057827	-0.08283879086474483	-0.0341790442238498	-0.01856308089203583	0.2360055372929135	-0.04119971561716774	0.06636257945965547	-0.0566203803645451	0.1956683715276667	0.1956683715276726	0.01205811647113667	-0.01361710564044237	0.04615457215629805	-0.02011341596449109	0.09942770355125011	-0.09847833238654534	-0.02960653919691315	-0.2286989627966199	0.1871723588684411	-0.01149597118430648	-0.0449298445333968	24.59019032432813	-2.452679967180556	3.641532142360644	-1.938717244537598	-516.1519166373753	-82.73323128996334	-40.00451070311446	-4.174883584482704	-1.67339596425438	-0.9325225404258898	11.77560883671993	-2.015302925668106	3.192658063590439	-2.515735606055942	9.734320888842152	9.734320888842342	0.6524795190507874	-0.7755956061870075	2.324968662138557	-0.9472884442428237	-1.079628990873771e-07	1.825951496454507e-07	2.777410475921554e-07	8.313479866383149e-08	-4.541829117867555e-07	-1.401694060412682e-07	-1.817456371604883e-08
0.03	-0.04162181069533695	0.06824750202887159	0.8955422586184157	0.2008398245463843	-0.3228357681156423	-0.4838503483721517	-0.1391777471108532	0.07455564976212015	0.07455564976211999	-0.1742608357953062	-0.1200186182424867	-0.06597173248042565	0.003494639427326062	-0.1225189641837119	-0.05052370853544233	-0.02765552959360007	0.3493278953057763	-0.06086965163076783	0.09827677622714066	-0.08256593158289983	0.2897403480929296	0.2897403480929264	0.01792328715570911	-0.02012660636641215	0.0684440744070702	-0.02959473655618583	0.09529793995006637	-0.09587697898579728	-0.02896265338548029	-0.2251780801826799	0.1832415189650824	-0.01069185648650483	-0.04141857384351133	23.39153706021097	-2.639236061170305	3.725192825059191	-1.838364774197978	-516.1329948763666	-82.53618363786313	-40.05258575798194	-3.836230271427189	-1.599389002125277	-0.8961875207461942	11.02746001243464	-1.924980012479871	3.170878386716333	-2.596056491740324	9.17480490642726	9.174804906425761	0.5504827730261675	-0.5796079852502047	2.16859032650372	-0.9361711290088063	-1.389250508439929e-07	1.969075885512541e-07	3.352819223504026e-07	1.118799783236109e-07	-6.275560672392988e-07	-1.789540928702852e-07	-2.303465580371271e-08
0.04	-0.04304067597096933	0.06766314429098096	0.8952204744417794	0.2048858664075236	-0.3235398395000265	-0.4827113311714615	-0.1401268161181131	0.07791194139221951	0.07791194139221994	-0.1740527838159395	-0.1202509274795458	-0.06517790272528425	0.003153347248202178	-0.1610649801356319	-0.0662438663475679	-0.03669123772411492	0.4593266824732422	-0.07982523057532617	0.1293940891301778	-0.1069951472818649	0.3810590793005499	0.381059079300537	0.02366633503491034	-0.02627533427031139	0.09023954945613083	-0.03858074764292004	0.09116817634885166	-0.09327562558504328	-0.0283187675740432	-0.2216571975687418	0.1793106790617277	-0.009887741788694759	-0.03790730315365989	22.25080471106493	-2.836137152812013	3.810736084882326	-1.889821902550035	-515.2736482188154	-82.18441971871151	-40.11753466365458	-3.948052111073321	-1.548494664360957	-0.9211744262160148	11.11089466764049	-1.872431511859758	3.033281290700824	-2.21246850217805	9.183671817313623	9.183671817313721	0.6280549579765389	-0.7034410417728922	2.226163221796287	-0.8482265432507033	-1.697409351116508e-07	2.108613543667844e-07	3.923558269038167e-07	1.405484686668776e-07	-8.001633844971526e-07	-2.175338470226138e-07	-2.786675681578534e-08
